<svg version="1.1" id="MEDAL" xmlns="http://www.w3.org/2000/svg" xmlns:xlink="http://www.w3.org/1999/xlink" viewBox="0 0 1800 1800" enable-background="new 0 0 1800 1800" xml:space="preserve" fill="#000000" stroke="#000000"><g id="SVGRepo_bgCarrier" stroke-width="0"></g><g id="SVGRepo_tracerCarrier" stroke-linecap="round" stroke-linejoin="round"></g><g id="SVGRepo_iconCarrier"> <g> <path fill="#0077B3" d="M1170.537,1120.229l-178.391-25.926l-79.759-161.635c-5.272-10.681-16.147-17.441-28.059-17.441 c-11.906,0-22.783,6.761-28.056,17.441l-79.776,161.63l-178.386,25.931c-11.785,1.711-21.574,9.964-25.253,21.29 c-3.68,11.326-0.611,23.761,7.917,32.071l129.084,125.823l-30.474,177.653c-2.013,11.736,2.811,23.6,12.447,30.601 c9.633,6.991,22.404,7.926,32.944,2.383l159.553-83.88l159.547,83.88c4.573,2.404,9.575,3.592,14.552,3.592 c6.494,0,12.945-2.017,18.393-5.975c9.637-7.001,14.464-18.864,12.447-30.601l-30.465-177.657l129.07-125.819 c8.529-8.314,11.593-20.745,7.918-32.071C1192.107,1130.192,1182.321,1121.939,1170.537,1120.229z M1003.346,1266.085 c-7.376,7.188-10.736,17.541-9,27.693l22.539,131.389l-117.999-62.035c-4.557-2.396-9.555-3.592-14.557-3.592 c-5.001,0-9.999,1.196-14.556,3.592l-118.002,62.035l22.539-131.389c1.741-10.152-1.624-20.505-9-27.693l-95.467-93.054 l131.929-19.178c10.188-1.479,19-7.879,23.556-17.109l59-119.543l58.995,119.538c4.547,9.235,13.355,15.635,23.551,17.114 l131.934,19.178L1003.346,1266.085z"></path> <path fill="#0077B3" d="M1784.612,23.339c-5.569-9.776-15.948-15.813-27.191-15.813h-462.282c-11.183,0-21.51,5.966-27.096,15.652 L913.897,637.144c-9.349-0.476-18.752-0.711-28.211-0.733L531.961,23.178c-5.587-9.686-15.918-15.652-27.1-15.652H42.58 c-11.247,0-21.626,6.037-27.191,15.813c-5.561,9.772-5.451,21.779,0.292,31.451l451.452,759.959 c-99.576,103.891-160.847,244.763-160.847,399.686c0,318.734,259.309,578.041,578.039,578.041 c318.728,0,578.03-259.307,578.03-578.041c0-144.814-53.537-277.354-141.842-378.884L1784.315,54.79 C1790.06,45.118,1790.173,33.111,1784.612,23.339z M97.553,70.097h389.239l329.004,570.376 c-114.047,13.535-218.012,60.385-301.861,130.55L97.553,70.097z M1399.784,1214.435c0,284.232-231.237,515.47-515.459,515.47 c-284.229,0-515.468-231.237-515.468-515.47c0-131.891,49.815-252.35,131.586-343.609c14.351-16.018,29.67-31.146,45.89-45.261 c82.522-71.82,188.032-117.836,303.869-125.443c9.267-0.607,18.598-0.969,27.991-1.078c2.042-0.026,4.081-0.079,6.132-0.079 c12.871,0,25.627,0.489,38.267,1.423c8.59,0.629,17.127,1.48,25.594,2.532c113.699,14.115,216.014,65.408,294.402,141.287 c15.678,15.176,30.387,31.329,44.048,48.369C1357.395,980.84,1399.784,1092.771,1399.784,1214.435z M1275.322,789.106 c-80.282-73.867-181.454-125.339-293.529-144.451l331.414-574.558h389.236L1275.322,789.106z"></path> </g> </g></svg>